<?xml version="1.0" standalone="no"?>
<!DOCTYPE svg PUBLIC "-//W3C//DTD SVG 20010904//EN"
 "http://www.w3.org/TR/2001/REC-SVG-20010904/DTD/svg10.dtd">
<svg version="1.0" xmlns="http://www.w3.org/2000/svg"
 width="300.000000pt" height="300.000000pt" viewBox="0 0 300.000000 300.000000"
 preserveAspectRatio="xMidYMid meet">
<metadata>
Created by potrace 1.14, written by Peter Selinger 2001-2017
</metadata>
<g transform="translate(0.000000,300.000000) scale(0.100000,-0.100000)"
fill="#000000" stroke="none">
<path d="M1359 2906 c-2 -2 -29 -7 -59 -10 -118 -14 -231 -42 -330 -82 -339
-137 -590 -369 -745 -689 -46 -94 -90 -216 -100 -275 -3 -19 -8 -42 -10 -50
-5 -19 -12 -60 -21 -125 -3 -27 -9 -54 -13 -60 -4 -5 -6 -23 -4 -40 1 -16 5
-59 8 -95 5 -59 23 -194 30 -230 27 -129 47 -189 100 -303 267 -583 905 -902
1540 -771 166 34 380 129 523 231 91 64 256 232 319 324 97 141 198 370 217
493 4 21 8 41 10 45 10 16 20 147 20 261 1 111 -3 161 -18 236 -2 12 -7 39
-10 60 -18 117 -115 338 -211 484 -63 96 -258 291 -353 354 -144 95 -363 191
-484 211 -18 3 -42 9 -53 12 -11 3 -31 8 -45 9 -49 5 -307 14 -311 10z"/>
</g>
</svg>
