<?xml version="1.0" standalone="no"?>
<!DOCTYPE svg PUBLIC "-//W3C//DTD SVG 20010904//EN"
 "http://www.w3.org/TR/2001/REC-SVG-20010904/DTD/svg10.dtd">
<svg version="1.0" xmlns="http://www.w3.org/2000/svg"
 width="300.000000pt" height="300.000000pt" viewBox="0 0 300.000000 300.000000"
 preserveAspectRatio="xMidYMid meet">
<metadata>
Created by potrace 1.14, written by Peter Selinger 2001-2017
</metadata>
<g transform="translate(0.000000,300.000000) scale(0.100000,-0.100000)"
fill="#000000" stroke="none">
<path d="M1566 2775 c-47 -29 -67 -35 -114 -35 -87 0 -243 -26 -329 -55 -536
-180 -843 -728 -717 -1281 17 -76 35 -126 78 -223 32 -70 35 -84 34 -171 0
-52 0 -102 1 -111 0 -8 22 -27 49 -41 26 -13 146 -82 267 -152 121 -71 238
-138 260 -151 22 -12 149 -86 283 -164 l243 -141 32 17 c26 13 834 479 957
551 19 12 54 31 78 43 32 17 42 29 43 48 0 14 1 301 1 638 1 615 0 643 -32
643 -7 0 -307 172 -350 200 -8 5 -33 19 -55 31 -22 12 -89 51 -150 87 -142 84
-277 162 -281 162 -2 0 -27 14 -56 31 -29 18 -69 41 -88 51 -19 11 -49 28 -66
39 l-30 18 -58 -34z m-421 -245 c-3 -5 -11 -10 -17 -10 -6 0 -19 -6 -27 -14
-9 -7 -47 -31 -86 -51 -38 -21 -86 -48 -105 -60 -67 -41 -67 -41 -51 -21 23
28 94 74 189 122 89 45 108 52 97 34z"/>
</g>
</svg>
